<?xml version="1.0" encoding="utf-8"?>
<!-- Generator: Adobe Illustrator 18.1.1, SVG Export Plug-In . SVG Version: 6.00 Build 0)  -->
<svg version="1.1" id="Layer_1" xmlns="http://www.w3.org/2000/svg" xmlns:xlink="http://www.w3.org/1999/xlink" x="0px" y="0px"
	 viewBox="0 0 2000 2000" enable-background="new 0 0 2000 2000" xml:space="preserve">
<g>
	<g>
		<path fill="#D6B9EF" d="M409,1483.4h11.8l59.2,142.6h-14.9l-18.5-44.6h-64.1l-18.3,44.6h-15.1L409,1483.4z M443.5,1570.4
			l-28.7-70.5l-29.1,70.5H443.5z"/>
		<path fill="#D6B9EF" d="M574.8,1509.5V1626h-14.1v-142.6h10.8l94.4,118.7v-118.5h14.1V1626h-12.3L574.8,1509.5z"/>
		<path fill="#D6B9EF" d="M775.5,1483.4l51,125.1l50.8-125.1H892L832.5,1626h-12.3l-59.4-142.6H775.5z"/>
		<path fill="#D6B9EF" d="M1004.6,1483.4h11.8l59.2,142.6h-14.9l-18.5-44.6h-64.1L960,1626H945L1004.6,1483.4z M1039.2,1570.4
			l-28.7-70.5l-29.1,70.5H1039.2z"/>
		<path fill="#D6B9EF" d="M1140.6,1483.4l46.6,76.7l47-76.7h15.3l-55.2,89.6v53h-14.1v-53.4l-55-89.2H1140.6z"/>
		<path fill="#D6B9EF" d="M1358.5,1483.4h11.8l59.2,142.6h-14.9l-18.5-44.6h-64.1l-18.3,44.6h-15.1L1358.5,1483.4z M1393,1570.4
			l-28.7-70.5l-29.1,70.5H1393z"/>
		<path fill="#D6B9EF" d="M1636.6,1626v-117.1l-52,90.6h-8.2l-52-90.6V1626h-14.1v-142.6h14.5l55.6,97.6l56-97.6h14.3V1626H1636.6z"
			/>
	</g>
	<g>
		<g>
			<path fill="#D6B9EF" d="M1062,1015c-1.5,0-3-0.5-4.3-1.5c-2.9-2.4-3.3-6.6-0.9-9.5c48.2-58.9,107.2-151.1,114.3-255.7
				c0.5-7,0.7-14,0.7-20.8c0-97-47.7-184.6-87.8-241c-35.6-50.1-71.7-85.2-83.9-96.6c-12.3,11.4-48.3,46.5-83.9,96.6
				c-40.1,56.4-87.8,144-87.8,241c0,6.9,0.2,13.9,0.7,20.8c7.1,104.6,66.1,196.8,114.3,255.7c2.4,2.9,1.9,7.1-0.9,9.5
				c-2.9,2.4-7.1,1.9-9.5-0.9c-49.5-60.4-110-155.2-117.3-263.4c-0.5-7.3-0.7-14.6-0.7-21.8c0-100.7,49.2-191,90.5-249
				c44.6-62.7,88.5-101.1,90.3-102.7c2.5-2.2,6.3-2.2,8.8,0c1.8,1.6,45.7,40,90.3,102.7c41.3,58,90.5,148.4,90.5,249
				c0,7.2-0.3,14.5-0.7,21.8c-7.4,108.2-67.9,202.9-117.3,263.4C1065.8,1014.2,1063.9,1015,1062,1015z"/>
		</g>
		<g>
			<path fill="#D6B9EF" d="M1177.8,755.5c-1.1,0-2.2-0.3-3.2-0.8c-53.2-29.1-113.5-44.5-174.5-44.5s-121.4,15.4-174.5,44.5
				c-3.3,1.8-7.4,0.6-9.1-2.7c-1.8-3.3-0.6-7.4,2.7-9.1c55.1-30.2,117.7-46.2,181-46.2s125.8,16,181,46.2c3.3,1.8,4.5,5.9,2.7,9.1
				C1182.4,754.2,1180.1,755.5,1177.8,755.5z"/>
		</g>
		<g>
			<path fill="#D6B9EF" d="M647.6,1353.2c-20.2,0-39.2-1.1-56.3-2.7c-76.6-7.3-131.8-26.1-134.1-26.9c-3.2-1.1-5.1-4.4-4.4-7.7
				c0.5-2.4,11.8-59.6,43.8-129.6c29.6-64.8,83.2-152.5,170.4-202.9c6.2-3.6,12.7-7,19.2-10.2c97.4-47.7,209.7-42.7,286.7-30.1
				c3.7,0.6,6.2,4.1,5.6,7.7c-0.6,3.7-4.1,6.2-7.7,5.6c-75.1-12.3-184.5-17.3-278.6,28.9c-6.3,3.1-12.5,6.4-18.4,9.8
				c-84.1,48.6-136.1,133.8-164.9,196.8c-25.5,55.9-37.8,104.4-41.6,120.7c16,4.9,64.4,18.6,125.6,24.4
				c68.9,6.5,168.6,4.1,252.6-44.4c5.9-3.4,11.9-7.2,17.7-11c87-58.5,137.4-155.6,164.3-226.9c1.3-3.5,5.2-5.2,8.7-3.9
				c3.5,1.3,5.2,5.2,3.9,8.7c-27.6,73.1-79.4,172.8-169.4,233.3c-6,4.1-12.3,7.9-18.5,11.5C786,1342.5,710.9,1353.2,647.6,1353.2z"
				/>
		</g>
		<g>
			<path fill="#D6B9EF" d="M866.9,1293.9c-1.2,0-2.4-0.3-3.5-1c-53.7-32.7-98.8-78.9-130.5-133.7c-31.6-54.8-49.1-117-50.5-179.8
				c-0.1-3.7,2.9-6.8,6.6-6.9c3.7,0,6.8,2.9,6.9,6.6c1.4,60.6,18.2,120.6,48.7,173.4c30.5,52.8,74,97.4,125.8,128.9
				c3.2,1.9,4.2,6.1,2.3,9.3C871.4,1292.8,869.1,1293.9,866.9,1293.9z"/>
		</g>
		<g>
			<path fill="#D6B9EF" d="M1352.4,1353.2c-63.4,0-138.5-10.7-204.6-48.9c-6.2-3.6-12.4-7.5-18.5-11.5
				c-90-60.5-141.8-160.2-169.4-233.3c-1.3-3.5,0.4-7.4,3.9-8.7c3.5-1.3,7.4,0.4,8.7,3.9c26.9,71.2,77.3,168.4,164.3,226.9
				c5.8,3.9,11.8,7.6,17.7,11c84.1,48.6,184,50.9,252.9,44.4c61.1-5.8,109.3-19.4,125.3-24.4c-3.7-16.4-16.1-65.1-41.7-121
				c-28.8-62.9-80.8-148-164.8-196.5c-5.9-3.4-12.1-6.7-18.4-9.8c-94.2-46.1-203.5-41.2-278.6-28.9c-3.7,0.6-7.1-1.9-7.7-5.6
				c-0.6-3.7,1.9-7.1,5.6-7.7c77.1-12.6,189.4-17.6,286.7,30.1c6.6,3.2,13,6.7,19.2,10.2c87.2,50.3,140.8,138.1,170.4,202.9
				c32,69.9,43.3,127.2,43.8,129.6c0.6,3.3-1.2,6.6-4.4,7.7c-2.3,0.8-57.6,19.6-134.1,26.9
				C1391.6,1352.1,1372.6,1353.2,1352.4,1353.2z"/>
		</g>
		<g>
			<path fill="#D6B9EF" d="M1133.1,1293.9c-2.3,0-4.5-1.2-5.8-3.2c-1.9-3.2-0.9-7.3,2.3-9.3c51.8-31.5,95.3-76.1,125.8-128.9
				c30.5-52.8,47.4-112.8,48.7-173.4c0.1-3.7,3.2-6.6,6.9-6.6c3.7,0.1,6.7,3.2,6.6,6.9c-1.4,62.9-18.9,125-50.5,179.8
				c-31.6,54.8-76.7,101-130.5,133.7C1135.5,1293.6,1134.3,1293.9,1133.1,1293.9z"/>
		</g>
	</g>
</g>
</svg>
